<svg width="20" height="20" viewBox="0 0 20 20" fill="none" xmlns="http://www.w3.org/2000/svg">
<g clip-path="url(#clip0_4193_317)">
<path d="M4.98438 15.5758C5.45462 14.6496 6.17216 13.8716 7.05745 13.3282C7.94275 12.7848 8.96123 12.4972 10 12.4972C11.0388 12.4972 12.0572 12.7848 12.9425 13.3282C13.8278 13.8716 14.5454 14.6496 15.0156 15.5758" stroke="#1E90FF" stroke-width="1.5" stroke-linecap="round" stroke-linejoin="round"/>
<path d="M10 17.5C14.1421 17.5 17.5 14.1421 17.5 10C17.5 5.85786 14.1421 2.5 10 2.5C5.85786 2.5 2.5 5.85786 2.5 10C2.5 14.1421 5.85786 17.5 10 17.5Z" stroke="#1E90FF" stroke-width="1.5" stroke-linecap="round" stroke-linejoin="round"/>
<path d="M10 12.5C11.7259 12.5 13.125 11.1009 13.125 9.375C13.125 7.64911 11.7259 6.25 10 6.25C8.27411 6.25 6.875 7.64911 6.875 9.375C6.875 11.1009 8.27411 12.5 10 12.5Z" stroke="#1E90FF" stroke-width="1.5" stroke-linecap="round" stroke-linejoin="round"/>
</g>
<defs>
<clipPath id="clip0_4193_317">
<rect width="20" height="20" fill="white"/>
</clipPath>
</defs>
</svg>
