<svg width="20" height="20" viewBox="0 0 20 20" fill="none" xmlns="http://www.w3.org/2000/svg">
<g clip-path="url(#clip0_4193_335)">
<path d="M5.625 16.875H16.875" stroke="#1E90FF" stroke-width="1.5" stroke-linecap="round" stroke-linejoin="round"/>
<path d="M11.2498 8.125H16.2498C16.9129 8.125 17.5488 8.38839 18.0176 8.85723C18.4864 9.32607 18.7498 9.96196 18.7498 10.625V12.5H4.77014C4.23254 12.5 3.70926 12.3267 3.27792 12.0059C2.84658 11.685 2.53016 11.2336 2.37561 10.7187L1.27639 7.05469C1.24838 6.96137 1.24257 6.86281 1.25943 6.76685C1.27629 6.67089 1.31535 6.58021 1.37349 6.50203C1.43162 6.42385 1.50724 6.36035 1.59428 6.31659C1.68133 6.27283 1.7774 6.25003 1.87482 6.25H2.49982L4.37482 8.125H7.25842L6.28264 5.19766C6.25134 5.10376 6.24278 5.00378 6.25768 4.90594C6.27257 4.80809 6.31049 4.71518 6.36831 4.63486C6.42614 4.55454 6.50221 4.48909 6.59027 4.44391C6.67832 4.39874 6.77585 4.37512 6.87482 4.375H7.49982L11.2498 8.125Z" stroke="#1E90FF" stroke-width="1.5" stroke-linecap="round" stroke-linejoin="round"/>
</g>
<defs>
<clipPath id="clip0_4193_335">
<rect width="20" height="20" fill="white"/>
</clipPath>
</defs>
</svg>
