<svg width="21" height="22" viewBox="0 0 21 22" fill="none" xmlns="http://www.w3.org/2000/svg">
<path d="M0.771484 21.0431L2.19857 15.8325C1.31839 14.3076 0.85532 12.5776 0.855885 10.8054C0.85814 5.26096 5.37018 0.750244 10.9148 0.750244C13.6054 0.751557 16.1308 1.79866 18.0302 3.69936C19.9291 5.60007 20.9746 8.12643 20.9737 10.8135C20.9712 16.3575 16.4585 20.869 10.9148 20.869C10.9144 20.869 10.9152 20.869 10.9148 20.869H10.9105C9.22716 20.8683 7.57306 20.4461 6.10378 19.6448L0.771484 21.0431Z" fill="white"/>
<path d="M10.9184 2.44873C6.30676 2.44873 2.55638 6.19774 2.55469 10.8059C2.554 12.385 2.99593 13.923 3.83277 15.2538L4.03172 15.57L3.18691 18.654L6.35122 17.8243L6.65677 18.0054C7.94011 18.767 9.41146 19.1698 10.912 19.1705H10.9152C15.5233 19.1705 19.2737 15.4211 19.2756 10.8126C19.2764 8.57942 18.4077 6.47939 16.8291 4.89971C15.2506 3.32003 13.1517 2.44967 10.9184 2.44873Z" fill="#10B981"/>
<path fill-rule="evenodd" clip-rule="evenodd" d="M8.40091 6.60159C8.21251 6.18317 8.01432 6.17469 7.83535 6.16734C7.68878 6.16113 7.52111 6.1615 7.35363 6.1615C7.18596 6.1615 6.91373 6.22443 6.68351 6.47593C6.4531 6.72744 5.80371 7.33539 5.80371 8.572C5.80371 9.80862 6.70442 11.0034 6.82989 11.1713C6.95555 11.3389 8.56858 13.9576 11.1234 14.965C13.2464 15.8022 13.6784 15.6356 14.1394 15.5938C14.6002 15.552 15.6264 14.9859 15.8357 14.399C16.0452 13.8122 16.0452 13.3094 15.9824 13.2042C15.9195 13.0993 15.752 13.0366 15.5005 12.9109C15.2492 12.7852 14.0135 12.1771 13.7831 12.0933C13.5527 12.0094 13.3852 11.9676 13.2176 12.2191C13.0501 12.4706 12.5687 13.0366 12.422 13.2042C12.2754 13.3721 12.1288 13.393 11.8773 13.2673C11.626 13.1413 10.8165 12.8762 9.85625 12.02C9.10908 11.3538 8.60475 10.5311 8.45799 10.2796C8.31142 10.0281 8.44235 9.89208 8.56839 9.7668C8.68123 9.65414 8.8197 9.47328 8.94555 9.32652C9.07083 9.17976 9.11284 9.07501 9.19649 8.90753C9.28033 8.73967 9.2385 8.59291 9.17558 8.46726C9.11284 8.3416 8.62434 7.09857 8.40091 6.60159Z" fill="white"/>
</svg>
